{
    "asset" : {
        "generator" : "Khronos glTF Blender I/O v1.6.16",
        "version" : "2.0"
    },
    "scene" : 0,
    "scenes" : [
        {
            "name" : "Scene",
            "nodes" : [
                6
            ]
        }
    ],
    "nodes" : [
        {
            "mesh" : 0,
            "name" : "Mesh_0.003"
        },
        {
            "children" : [
                0
            ],
            "name" : "LPTable",
            "rotation" : [
                -0.7071068286895752,
                0,
                0,
                0.7071068286895752
            ],
            "translation" : [
                0,
                -29.01970672607422,
                0
            ]
        },
        {
            "children" : [
                1
            ],
            "name" : "RootNode"
        },
        {
            "children" : [
                2
            ],
            "name" : "Node_3"
        },
        {
            "children" : [
                3
            ],
            "name" : "bar_table.FBX",
            "rotation" : [
                0.7071068286895752,
                0,
                0,
                0.7071068286895752
            ]
        },
        {
            "children" : [
                4
            ],
            "name" : "RootNode (model correction matrix)"
        },
        {
            "children" : [
                5
            ],
            "name" : "RootNode (gltf orientation matrix)",
            "rotation" : [
                -0.7071068286895752,
                0,
                0,
                0.7071068286895752
            ]
        }
    ],
    "animations" : [
        {
            "channels" : [
                {
                    "sampler" : 0,
                    "target" : {
                        "node" : 2,
                        "path" : "translation"
                    }
                },
                {
                    "sampler" : 1,
                    "target" : {
                        "node" : 2,
                        "path" : "scale"
                    }
                },
                {
                    "sampler" : 2,
                    "target" : {
                        "node" : 2,
                        "path" : "rotation"
                    }
                },
                {
                    "sampler" : 3,
                    "target" : {
                        "node" : 1,
                        "path" : "translation"
                    }
                },
                {
                    "sampler" : 4,
                    "target" : {
                        "node" : 1,
                        "path" : "scale"
                    }
                },
                {
                    "sampler" : 5,
                    "target" : {
                        "node" : 1,
                        "path" : "rotation"
                    }
                }
            ],
            "name" : "Take 001",
            "samplers" : [
                {
                    "input" : 4,
                    "interpolation" : "STEP",
                    "output" : 5
                },
                {
                    "input" : 4,
                    "interpolation" : "STEP",
                    "output" : 6
                },
                {
                    "input" : 4,
                    "interpolation" : "STEP",
                    "output" : 7
                },
                {
                    "input" : 4,
                    "interpolation" : "STEP",
                    "output" : 8
                },
                {
                    "input" : 4,
                    "interpolation" : "STEP",
                    "output" : 9
                },
                {
                    "input" : 4,
                    "interpolation" : "STEP",
                    "output" : 10
                }
            ]
        }
    ],
    "materials" : [
        {
            "doubleSided" : true,
            "name" : "Material_167.003",
            "normalTexture" : {
                "index" : 0
            },
            "pbrMetallicRoughness" : {
                "baseColorTexture" : {
                    "index" : 1
                },
                "metallicFactor" : 0,
                "roughnessFactor" : 0.6000000238418579
            }
        }
    ],
    "meshes" : [
        {
            "name" : "Mesh_0.003",
            "primitives" : [
                {
                    "attributes" : {
                        "POSITION" : 0,
                        "NORMAL" : 1,
                        "TEXCOORD_0" : 2
                    },
                    "indices" : 3,
                    "material" : 0
                }
            ]
        }
    ],
    "textures" : [
        {
            "sampler" : 0,
            "source" : 0
        },
        {
            "sampler" : 0,
            "source" : 1
        }
    ],
    "images" : [
        {
            "bufferView" : 4,
            "mimeType" : "image/png",
            "name" : "Material_167_normal"
        },
        {
            "bufferView" : 5,
            "mimeType" : "image/png",
            "name" : "Material_167_baseColor"
        }
    ],
    "accessors" : [
        {
            "bufferView" : 0,
            "componentType" : 5126,
            "count" : 525,
            "max" : [
                22.000001907348633,
                21.999998092651367,
                47.01970672607422
            ],
            "min" : [
                -22,
                -22.000003814697266,
                -2.9274826049804688
            ],
            "type" : "VEC3"
        },
        {
            "bufferView" : 1,
            "componentType" : 5126,
            "count" : 525,
            "type" : "VEC3"
        },
        {
            "bufferView" : 2,
            "componentType" : 5126,
            "count" : 525,
            "type" : "VEC2"
        },
        {
            "bufferView" : 3,
            "componentType" : 5123,
            "count" : 1086,
            "type" : "SCALAR"
        },
        {
            "bufferView" : 6,
            "componentType" : 5126,
            "count" : 1,
            "max" : [
                0
            ],
            "min" : [
                0
            ],
            "type" : "SCALAR"
        },
        {
            "bufferView" : 7,
            "componentType" : 5126,
            "count" : 1,
            "type" : "VEC3"
        },
        {
            "bufferView" : 8,
            "componentType" : 5126,
            "count" : 1,
            "type" : "VEC3"
        },
        {
            "bufferView" : 9,
            "componentType" : 5126,
            "count" : 1,
            "type" : "VEC4"
        },
        {
            "bufferView" : 10,
            "componentType" : 5126,
            "count" : 1,
            "type" : "VEC3"
        },
        {
            "bufferView" : 11,
            "componentType" : 5126,
            "count" : 1,
            "type" : "VEC3"
        },
        {
            "bufferView" : 12,
            "componentType" : 5126,
            "count" : 1,
            "type" : "VEC4"
        }
    ],
    "bufferViews" : [
        {
            "buffer" : 0,
            "byteLength" : 6300,
            "byteOffset" : 0
        },
        {
            "buffer" : 0,
            "byteLength" : 6300,
            "byteOffset" : 6300
        },
        {
            "buffer" : 0,
            "byteLength" : 4200,
            "byteOffset" : 12600
        },
        {
            "buffer" : 0,
            "byteLength" : 2172,
            "byteOffset" : 16800
        },
        {
            "buffer" : 0,
            "byteLength" : 121283,
            "byteOffset" : 18972
        },
        {
            "buffer" : 0,
            "byteLength" : 450500,
            "byteOffset" : 140256
        },
        {
            "buffer" : 0,
            "byteLength" : 4,
            "byteOffset" : 590756
        },
        {
            "buffer" : 0,
            "byteLength" : 12,
            "byteOffset" : 590760
        },
        {
            "buffer" : 0,
            "byteLength" : 12,
            "byteOffset" : 590772
        },
        {
            "buffer" : 0,
            "byteLength" : 16,
            "byteOffset" : 590784
        },
        {
            "buffer" : 0,
            "byteLength" : 12,
            "byteOffset" : 590800
        },
        {
            "buffer" : 0,
            "byteLength" : 12,
            "byteOffset" : 590812
        },
        {
            "buffer" : 0,
            "byteLength" : 16,
            "byteOffset" : 590824
        }
    ],
    "samplers" : [
        {
            "magFilter" : 9729,
            "minFilter" : 9987
        }
    ],
    "buffers" : [
        {
            "byteLength" : 590840,
            "uri" : "data:application/octet-stream;base64,"
        }
    ]
}
