{
    "asset" : {
        "generator" : "Khronos glTF Blender I/O v1.6.16",
        "version" : "2.0"
    },
    "scene" : 0,
    "scenes" : [
        {
            "name" : "Scene",
            "nodes" : [
                0,
                1,
                2,
                3,
                4
            ]
        }
    ],
    "nodes" : [
        {
            "name" : "Light",
            "rotation" : [
                0.34943559765815735,
                0.4729965329170227,
                -0.5540690422058105,
                -0.5892168879508972
            ],
            "translation" : [
                -1.8185908794403076,
                1.9017959833145142,
                0.39106667041778564
            ]
        },
        {
            "name" : "Light.001",
            "rotation" : [
                0.34943559765815735,
                0.4729965329170227,
                -0.5540690422058105,
                -0.5892168879508972
            ],
            "translation" : [
                1.550260305404663,
                1.9017959833145142,
                0.39106667041778564
            ]
        },
        {
            "name" : "Light.002",
            "rotation" : [
                0.34943559765815735,
                0.4729965329170227,
                -0.5540690422058105,
                -0.5892168879508972
            ],
            "translation" : [
                -0.01647406816482544,
                1.9017959833145142,
                -2.0355849266052246
            ]
        },
        {
            "name" : "Light.003",
            "rotation" : [
                0.34943559765815735,
                0.4729965329170227,
                -0.5540690422058105,
                -0.5892168879508972
            ],
            "translation" : [
                -0.015582680702209473,
                1.9017959833145142,
                1.9784951210021973
            ]
        },
        {
            "mesh" : 0,
            "name" : "BlackStoneUnit",
            "rotation" : [
                0.7071068286895752,
                0,
                0,
                0.7071068286895752
            ],
            "scale" : [
                0.009999999776482582,
                0.009999999776482582,
                0.009999999776482582
            ]
        }
    ],
    "materials" : [
        {
            "doubleSided" : true,
            "name" : "StoneBlack.004",
            "pbrMetallicRoughness" : {
                "baseColorFactor" : [
                    0.02199999988079071,
                    0.02199999988079071,
                    0.02199999988079071,
                    1
                ],
                "metallicFactor" : 0.5,
                "roughnessFactor" : 0.5527864098548889
            }
        }
    ],
    "meshes" : [
        {
            "name" : "Mesh.040",
            "primitives" : [
                {
                    "attributes" : {
                        "POSITION" : 0,
                        "NORMAL" : 1,
                        "TEXCOORD_0" : 2
                    },
                    "indices" : 3,
                    "material" : 0
                }
            ]
        }
    ],
    "accessors" : [
        {
            "bufferView" : 0,
            "componentType" : 5126,
            "count" : 238,
            "max" : [
                2.155841827392578,
                2.1484804153442383,
                1.9073486328125e-06
            ],
            "min" : [
                -2.126443862915039,
                -2.148482322692871,
                -1.3144207000732422
            ],
            "type" : "VEC3"
        },
        {
            "bufferView" : 1,
            "componentType" : 5126,
            "count" : 238,
            "type" : "VEC3"
        },
        {
            "bufferView" : 2,
            "componentType" : 5126,
            "count" : 238,
            "type" : "VEC2"
        },
        {
            "bufferView" : 3,
            "componentType" : 5123,
            "count" : 1140,
            "type" : "SCALAR"
        }
    ],
    "bufferViews" : [
        {
            "buffer" : 0,
            "byteLength" : 2856,
            "byteOffset" : 0
        },
        {
            "buffer" : 0,
            "byteLength" : 2856,
            "byteOffset" : 2856
        },
        {
            "buffer" : 0,
            "byteLength" : 1904,
            "byteOffset" : 5712
        },
        {
            "buffer" : 0,
            "byteLength" : 2280,
            "byteOffset" : 7616
        }
    ],
    "buffers" : [
        {
            "byteLength" : 9896,
            "uri" : "data:application/octet-stream;base64,"
        }
    ]
}
