{
    "asset" : {
        "generator" : "Khronos glTF Blender I/O v1.6.16",
        "version" : "2.0"
    },
    "scene" : 0,
    "scenes" : [
        {
            "name" : "Scene",
            "nodes" : [
                0,
                2,
                3,
                4,
                5,
                6,
                7,
                8,
                9,
                10,
                11,
                12
            ]
        }
    ],
    "nodes" : [
        {
            "name" : "Light",
            "rotation" : [
                0.34943559765815735,
                0.4729965329170227,
                -0.5540690422058105,
                -0.5892168879508972
            ],
            "translation" : [
                -1.8185908794403076,
                1.9017959833145142,
                0.39106667041778564
            ]
        },
        {
            "mesh" : 0,
            "name" : "BlackBowl"
        },
        {
            "children" : [
                1
            ],
            "name" : "f",
            "rotation" : [
                0.7071068286895752,
                0,
                0,
                0.7071067094802856
            ],
            "scale" : [
                0.009999999776482582,
                0.009999999776482582,
                0.009999999776482582
            ]
        },
        {
            "name" : "Light.001",
            "rotation" : [
                0.34943559765815735,
                0.4729965329170227,
                -0.5540690422058105,
                -0.5892168879508972
            ],
            "translation" : [
                1.550260305404663,
                1.9017959833145142,
                0.39106667041778564
            ]
        },
        {
            "name" : "Light.002",
            "rotation" : [
                0.34943559765815735,
                0.4729965329170227,
                -0.5540690422058105,
                -0.5892168879508972
            ],
            "translation" : [
                -0.01647406816482544,
                1.9017959833145142,
                -2.0355849266052246
            ]
        },
        {
            "name" : "Light.003",
            "rotation" : [
                0.34943559765815735,
                0.4729965329170227,
                -0.5540690422058105,
                -0.5892168879508972
            ],
            "translation" : [
                -0.015582680702209473,
                1.9017959833145142,
                1.9784951210021973
            ]
        },
        {
            "mesh" : 1,
            "name" : "BlackStone.001",
            "rotation" : [
                0.7071068286895752,
                0,
                0,
                0.7071068286895752
            ],
            "scale" : [
                0.009999999776482582,
                0.009999999776482582,
                0.009999999776482582
            ],
            "translation" : [
                -0.013768346980214119,
                0.049254849553108215,
                -0.051188886165618896
            ]
        },
        {
            "mesh" : 2,
            "name" : "BlackStone.002",
            "rotation" : [
                0.7071068286895752,
                0,
                0,
                0.7071068286895752
            ],
            "scale" : [
                0.009999999776482582,
                0.009999999776482582,
                0.009999999776482582
            ],
            "translation" : [
                0.03985956311225891,
                0.049254849553108215,
                0.020006299018859863
            ]
        },
        {
            "mesh" : 3,
            "name" : "BlackStone.003",
            "rotation" : [
                0.7071068286895752,
                0,
                0,
                0.7071068286895752
            ],
            "scale" : [
                0.009999999776482582,
                0.009999999776482582,
                0.009999999776482582
            ],
            "translation" : [
                0.0035568755120038986,
                0.049254849553108215,
                -0.008782908320426941
            ]
        },
        {
            "mesh" : 4,
            "name" : "BlackStone.004",
            "rotation" : [
                0.7071068286895752,
                0,
                0,
                0.7071068286895752
            ],
            "scale" : [
                0.009999999776482582,
                0.009999999776482582,
                0.009999999776482582
            ],
            "translation" : [
                -0.0485052764415741,
                0.049254849553108215,
                -0.007407352328300476
            ]
        },
        {
            "mesh" : 5,
            "name" : "BlackStone.005",
            "rotation" : [
                0.7071068286895752,
                0,
                0,
                0.7071068286895752
            ],
            "scale" : [
                0.009999999776482582,
                0.009999999776482582,
                0.009999999776482582
            ],
            "translation" : [
                -0.0031466204673051834,
                0.049254849553108215,
                0.04293486475944519
            ]
        },
        {
            "mesh" : 6,
            "name" : "BlackStone.006",
            "rotation" : [
                0.7071068286895752,
                0,
                0,
                0.7071068286895752
            ],
            "scale" : [
                0.009999999776482582,
                0.009999999776482582,
                0.009999999776482582
            ],
            "translation" : [
                -0.05047675967216492,
                0.049254849553108215,
                0.039512500166893005
            ]
        },
        {
            "mesh" : 7,
            "name" : "BlackStone",
            "rotation" : [
                0.7071068286895752,
                0,
                0,
                0.7071068286895752
            ],
            "scale" : [
                0.009999999776482582,
                0.009999999776482582,
                0.009999999776482582
            ],
            "translation" : [
                0.04400375485420227,
                0.049254849553108215,
                -0.03728896379470825
            ]
        }
    ],
    "materials" : [
        {
            "doubleSided" : true,
            "name" : "Wood2",
            "pbrMetallicRoughness" : {
                "baseColorTexture" : {
                    "index" : 0
                },
                "metallicFactor" : 0.5,
                "roughnessFactor" : 0.7487671971321106
            }
        },
        {
            "doubleSided" : true,
            "name" : "StoneBlack.008",
            "pbrMetallicRoughness" : {
                "baseColorFactor" : [
                    0.02199999988079071,
                    0.02199999988079071,
                    0.02199999988079071,
                    1
                ],
                "metallicFactor" : 0.5,
                "roughnessFactor" : 0.5527864098548889
            }
        },
        {
            "doubleSided" : true,
            "name" : "StoneBlack.009",
            "pbrMetallicRoughness" : {
                "baseColorFactor" : [
                    0.02199999988079071,
                    0.02199999988079071,
                    0.02199999988079071,
                    1
                ],
                "metallicFactor" : 0.5,
                "roughnessFactor" : 0.5527864098548889
            }
        },
        {
            "doubleSided" : true,
            "name" : "StoneBlack.010",
            "pbrMetallicRoughness" : {
                "baseColorFactor" : [
                    0.02199999988079071,
                    0.02199999988079071,
                    0.02199999988079071,
                    1
                ],
                "metallicFactor" : 0.5,
                "roughnessFactor" : 0.5527864098548889
            }
        },
        {
            "doubleSided" : true,
            "name" : "StoneBlack.011",
            "pbrMetallicRoughness" : {
                "baseColorFactor" : [
                    0.02199999988079071,
                    0.02199999988079071,
                    0.02199999988079071,
                    1
                ],
                "metallicFactor" : 0.5,
                "roughnessFactor" : 0.5527864098548889
            }
        },
        {
            "doubleSided" : true,
            "name" : "StoneBlack.012",
            "pbrMetallicRoughness" : {
                "baseColorFactor" : [
                    0.02199999988079071,
                    0.02199999988079071,
                    0.02199999988079071,
                    1
                ],
                "metallicFactor" : 0.5,
                "roughnessFactor" : 0.5527864098548889
            }
        },
        {
            "doubleSided" : true,
            "name" : "StoneBlack.013",
            "pbrMetallicRoughness" : {
                "baseColorFactor" : [
                    0.02199999988079071,
                    0.02199999988079071,
                    0.02199999988079071,
                    1
                ],
                "metallicFactor" : 0.5,
                "roughnessFactor" : 0.5527864098548889
            }
        },
        {
            "doubleSided" : true,
            "name" : "StoneBlack.014",
            "pbrMetallicRoughness" : {
                "baseColorFactor" : [
                    0.02199999988079071,
                    0.02199999988079071,
                    0.02199999988079071,
                    1
                ],
                "metallicFactor" : 0.5,
                "roughnessFactor" : 0.5527864098548889
            }
        }
    ],
    "meshes" : [
        {
            "name" : "Mesh",
            "primitives" : [
                {
                    "attributes" : {
                        "POSITION" : 0,
                        "NORMAL" : 1,
                        "TEXCOORD_0" : 2
                    },
                    "indices" : 3,
                    "material" : 0
                }
            ]
        },
        {
            "name" : "Mesh.045",
            "primitives" : [
                {
                    "attributes" : {
                        "POSITION" : 4,
                        "NORMAL" : 5,
                        "TEXCOORD_0" : 6
                    },
                    "indices" : 7,
                    "material" : 1
                }
            ]
        },
        {
            "name" : "Mesh.046",
            "primitives" : [
                {
                    "attributes" : {
                        "POSITION" : 8,
                        "NORMAL" : 9,
                        "TEXCOORD_0" : 10
                    },
                    "indices" : 7,
                    "material" : 2
                }
            ]
        },
        {
            "name" : "Mesh.047",
            "primitives" : [
                {
                    "attributes" : {
                        "POSITION" : 11,
                        "NORMAL" : 12,
                        "TEXCOORD_0" : 13
                    },
                    "indices" : 7,
                    "material" : 3
                }
            ]
        },
        {
            "name" : "Mesh.048",
            "primitives" : [
                {
                    "attributes" : {
                        "POSITION" : 14,
                        "NORMAL" : 15,
                        "TEXCOORD_0" : 16
                    },
                    "indices" : 7,
                    "material" : 4
                }
            ]
        },
        {
            "name" : "Mesh.049",
            "primitives" : [
                {
                    "attributes" : {
                        "POSITION" : 17,
                        "NORMAL" : 18,
                        "TEXCOORD_0" : 19
                    },
                    "indices" : 7,
                    "material" : 5
                }
            ]
        },
        {
            "name" : "Mesh.050",
            "primitives" : [
                {
                    "attributes" : {
                        "POSITION" : 20,
                        "NORMAL" : 21,
                        "TEXCOORD_0" : 22
                    },
                    "indices" : 7,
                    "material" : 6
                }
            ]
        },
        {
            "name" : "Mesh.051",
            "primitives" : [
                {
                    "attributes" : {
                        "POSITION" : 23,
                        "NORMAL" : 24,
                        "TEXCOORD_0" : 25
                    },
                    "indices" : 7,
                    "material" : 7
                }
            ]
        }
    ],
    "textures" : [
        {
            "sampler" : 0,
            "source" : 0
        }
    ],
    "images" : [
        {
            "bufferView" : 4,
            "mimeType" : "image/jpeg",
            "name" : "file2"
        }
    ],
    "accessors" : [
        {
            "bufferView" : 0,
            "componentType" : 5126,
            "count" : 479,
            "max" : [
                13.347256660461426,
                13.347265243530273,
                0.1917285919189453
            ],
            "min" : [
                -13.347272872924805,
                -13.347269058227539,
                -11.897451400756836
            ],
            "type" : "VEC3"
        },
        {
            "bufferView" : 1,
            "componentType" : 5126,
            "count" : 479,
            "type" : "VEC3"
        },
        {
            "bufferView" : 2,
            "componentType" : 5126,
            "count" : 479,
            "type" : "VEC2"
        },
        {
            "bufferView" : 3,
            "componentType" : 5123,
            "count" : 2208,
            "type" : "SCALAR"
        },
        {
            "bufferView" : 5,
            "componentType" : 5126,
            "count" : 238,
            "max" : [
                2.155841827392578,
                2.1484804153442383,
                1.9073486328125e-06
            ],
            "min" : [
                -2.126443862915039,
                -2.148482322692871,
                -1.3144207000732422
            ],
            "type" : "VEC3"
        },
        {
            "bufferView" : 6,
            "componentType" : 5126,
            "count" : 238,
            "type" : "VEC3"
        },
        {
            "bufferView" : 7,
            "componentType" : 5126,
            "count" : 238,
            "type" : "VEC2"
        },
        {
            "bufferView" : 8,
            "componentType" : 5123,
            "count" : 1140,
            "type" : "SCALAR"
        },
        {
            "bufferView" : 9,
            "componentType" : 5126,
            "count" : 238,
            "max" : [
                2.155841827392578,
                2.1484804153442383,
                1.9073486328125e-06
            ],
            "min" : [
                -2.126443862915039,
                -2.148482322692871,
                -1.3144207000732422
            ],
            "type" : "VEC3"
        },
        {
            "bufferView" : 10,
            "componentType" : 5126,
            "count" : 238,
            "type" : "VEC3"
        },
        {
            "bufferView" : 11,
            "componentType" : 5126,
            "count" : 238,
            "type" : "VEC2"
        },
        {
            "bufferView" : 12,
            "componentType" : 5126,
            "count" : 238,
            "max" : [
                2.155841827392578,
                2.1484804153442383,
                1.9073486328125e-06
            ],
            "min" : [
                -2.126443862915039,
                -2.148482322692871,
                -1.3144207000732422
            ],
            "type" : "VEC3"
        },
        {
            "bufferView" : 13,
            "componentType" : 5126,
            "count" : 238,
            "type" : "VEC3"
        },
        {
            "bufferView" : 14,
            "componentType" : 5126,
            "count" : 238,
            "type" : "VEC2"
        },
        {
            "bufferView" : 15,
            "componentType" : 5126,
            "count" : 238,
            "max" : [
                2.155841827392578,
                2.1484804153442383,
                1.9073486328125e-06
            ],
            "min" : [
                -2.126443862915039,
                -2.148482322692871,
                -1.3144207000732422
            ],
            "type" : "VEC3"
        },
        {
            "bufferView" : 16,
            "componentType" : 5126,
            "count" : 238,
            "type" : "VEC3"
        },
        {
            "bufferView" : 17,
            "componentType" : 5126,
            "count" : 238,
            "type" : "VEC2"
        },
        {
            "bufferView" : 18,
            "componentType" : 5126,
            "count" : 238,
            "max" : [
                2.155841827392578,
                2.1484804153442383,
                1.9073486328125e-06
            ],
            "min" : [
                -2.126443862915039,
                -2.148482322692871,
                -1.3144207000732422
            ],
            "type" : "VEC3"
        },
        {
            "bufferView" : 19,
            "componentType" : 5126,
            "count" : 238,
            "type" : "VEC3"
        },
        {
            "bufferView" : 20,
            "componentType" : 5126,
            "count" : 238,
            "type" : "VEC2"
        },
        {
            "bufferView" : 21,
            "componentType" : 5126,
            "count" : 238,
            "max" : [
                2.155841827392578,
                2.1484804153442383,
                1.9073486328125e-06
            ],
            "min" : [
                -2.126443862915039,
                -2.148482322692871,
                -1.3144207000732422
            ],
            "type" : "VEC3"
        },
        {
            "bufferView" : 22,
            "componentType" : 5126,
            "count" : 238,
            "type" : "VEC3"
        },
        {
            "bufferView" : 23,
            "componentType" : 5126,
            "count" : 238,
            "type" : "VEC2"
        },
        {
            "bufferView" : 24,
            "componentType" : 5126,
            "count" : 238,
            "max" : [
                2.155841827392578,
                2.1484804153442383,
                1.9073486328125e-06
            ],
            "min" : [
                -2.126443862915039,
                -2.148482322692871,
                -1.3144207000732422
            ],
            "type" : "VEC3"
        },
        {
            "bufferView" : 25,
            "componentType" : 5126,
            "count" : 238,
            "type" : "VEC3"
        },
        {
            "bufferView" : 26,
            "componentType" : 5126,
            "count" : 238,
            "type" : "VEC2"
        }
    ],
    "bufferViews" : [
        {
            "buffer" : 0,
            "byteLength" : 5748,
            "byteOffset" : 0
        },
        {
            "buffer" : 0,
            "byteLength" : 5748,
            "byteOffset" : 5748
        },
        {
            "buffer" : 0,
            "byteLength" : 3832,
            "byteOffset" : 11496
        },
        {
            "buffer" : 0,
            "byteLength" : 4416,
            "byteOffset" : 15328
        },
        {
            "buffer" : 0,
            "byteLength" : 1724744,
            "byteOffset" : 19744
        },
        {
            "buffer" : 0,
            "byteLength" : 2856,
            "byteOffset" : 1744488
        },
        {
            "buffer" : 0,
            "byteLength" : 2856,
            "byteOffset" : 1747344
        },
        {
            "buffer" : 0,
            "byteLength" : 1904,
            "byteOffset" : 1750200
        },
        {
            "buffer" : 0,
            "byteLength" : 2280,
            "byteOffset" : 1752104
        },
        {
            "buffer" : 0,
            "byteLength" : 2856,
            "byteOffset" : 1754384
        },
        {
            "buffer" : 0,
            "byteLength" : 2856,
            "byteOffset" : 1757240
        },
        {
            "buffer" : 0,
            "byteLength" : 1904,
            "byteOffset" : 1760096
        },
        {
            "buffer" : 0,
            "byteLength" : 2856,
            "byteOffset" : 1762000
        },
        {
            "buffer" : 0,
            "byteLength" : 2856,
            "byteOffset" : 1764856
        },
        {
            "buffer" : 0,
            "byteLength" : 1904,
            "byteOffset" : 1767712
        },
        {
            "buffer" : 0,
            "byteLength" : 2856,
            "byteOffset" : 1769616
        },
        {
            "buffer" : 0,
            "byteLength" : 2856,
            "byteOffset" : 1772472
        },
        {
            "buffer" : 0,
            "byteLength" : 1904,
            "byteOffset" : 1775328
        },
        {
            "buffer" : 0,
            "byteLength" : 2856,
            "byteOffset" : 1777232
        },
        {
            "buffer" : 0,
            "byteLength" : 2856,
            "byteOffset" : 1780088
        },
        {
            "buffer" : 0,
            "byteLength" : 1904,
            "byteOffset" : 1782944
        },
        {
            "buffer" : 0,
            "byteLength" : 2856,
            "byteOffset" : 1784848
        },
        {
            "buffer" : 0,
            "byteLength" : 2856,
            "byteOffset" : 1787704
        },
        {
            "buffer" : 0,
            "byteLength" : 1904,
            "byteOffset" : 1790560
        },
        {
            "buffer" : 0,
            "byteLength" : 2856,
            "byteOffset" : 1792464
        },
        {
            "buffer" : 0,
            "byteLength" : 2856,
            "byteOffset" : 1795320
        },
        {
            "buffer" : 0,
            "byteLength" : 1904,
            "byteOffset" : 1798176
        }
    ],
    "samplers" : [
        {
            "magFilter" : 9729,
            "minFilter" : 9987
        }
    ],
    "buffers" : [
        {
            "byteLength" : 1800080,
            "uri" : "data:application/octet-stream;base64,"
        }
    ]
}
