{
    "asset" : {
        "generator" : "Khronos glTF Blender I/O v1.6.16",
        "version" : "2.0"
    },
    "scene" : 0,
    "scenes" : [
        {
            "name" : "Scene",
            "nodes" : [
                0,
                2,
                3,
                4,
                5
            ]
        }
    ],
    "nodes" : [
        {
            "name" : "Light",
            "rotation" : [
                0.34943559765815735,
                0.4729965329170227,
                -0.5540690422058105,
                -0.5892168879508972
            ],
            "translation" : [
                -1.8185908794403076,
                1.9017959833145142,
                0.39106667041778564
            ]
        },
        {
            "mesh" : 0,
            "name" : "pCube1",
            "translation" : [
                0,
                -6.984142601140775e-06,
                -15.429560661315918
            ]
        },
        {
            "children" : [
                1
            ],
            "name" : "Board",
            "rotation" : [
                0.7071068286895752,
                0,
                0,
                0.7071067094802856
            ],
            "scale" : [
                0.009999999776482582,
                0.009999999776482582,
                0.009999999776482582
            ]
        },
        {
            "name" : "Light.001",
            "rotation" : [
                0.34943559765815735,
                0.4729965329170227,
                -0.5540690422058105,
                -0.5892168879508972
            ],
            "translation" : [
                1.550260305404663,
                1.9017959833145142,
                0.39106667041778564
            ]
        },
        {
            "name" : "Light.002",
            "rotation" : [
                0.34943559765815735,
                0.4729965329170227,
                -0.5540690422058105,
                -0.5892168879508972
            ],
            "translation" : [
                -0.01647406816482544,
                1.9017959833145142,
                -2.0355849266052246
            ]
        },
        {
            "name" : "Light.003",
            "rotation" : [
                0.34943559765815735,
                0.4729965329170227,
                -0.5540690422058105,
                -0.5892168879508972
            ],
            "translation" : [
                -0.015582680702209473,
                1.9017959833145142,
                1.9784951210021973
            ]
        }
    ],
    "materials" : [
        {
            "doubleSided" : true,
            "name" : "BoardBaseUV",
            "pbrMetallicRoughness" : {
                "baseColorTexture" : {
                    "index" : 0
                },
                "roughnessFactor" : 0.5527864098548889
            }
        }
    ],
    "meshes" : [
        {
            "name" : "Mesh.005",
            "primitives" : [
                {
                    "attributes" : {
                        "POSITION" : 0,
                        "NORMAL" : 1,
                        "TEXCOORD_0" : 2
                    },
                    "indices" : 3,
                    "material" : 0
                }
            ]
        }
    ],
    "textures" : [
        {
            "sampler" : 0,
            "source" : 0
        }
    ],
    "images" : [
        {
            "bufferView" : 4,
            "mimeType" : "image/jpeg",
            "name" : "file1"
        }
    ],
    "accessors" : [
        {
            "bufferView" : 0,
            "componentType" : 5126,
            "count" : 24,
            "max" : [
                45.141212463378906,
                45.14122009277344,
                -9.5367431640625e-07
            ],
            "min" : [
                -45.141212463378906,
                -45.141212463378906,
                -6.484307289123535
            ],
            "type" : "VEC3"
        },
        {
            "bufferView" : 1,
            "componentType" : 5126,
            "count" : 24,
            "type" : "VEC3"
        },
        {
            "bufferView" : 2,
            "componentType" : 5126,
            "count" : 24,
            "type" : "VEC2"
        },
        {
            "bufferView" : 3,
            "componentType" : 5123,
            "count" : 36,
            "type" : "SCALAR"
        }
    ],
    "bufferViews" : [
        {
            "buffer" : 0,
            "byteLength" : 288,
            "byteOffset" : 0
        },
        {
            "buffer" : 0,
            "byteLength" : 288,
            "byteOffset" : 288
        },
        {
            "buffer" : 0,
            "byteLength" : 192,
            "byteOffset" : 576
        },
        {
            "buffer" : 0,
            "byteLength" : 72,
            "byteOffset" : 768
        },
        {
            "buffer" : 0,
            "byteLength" : 2139588,
            "byteOffset" : 840
        }
    ],
    "samplers" : [
        {
            "magFilter" : 9729,
            "minFilter" : 9987
        }
    ],
    "buffers" : [
        {
            "byteLength" : 2140428,
            "uri" : "data:application/octet-stream;base64,"
        }
    ]
}
