{"asset":{"version":"2.0","generator":"THREE.GLTFExporter"},"scenes":[{"nodes":[0],"name":"AuxScene"}],"scene":0,"nodes":[{"mesh":0}],"bufferViews":[{"buffer":0,"byteOffset":0,"byteLength":20196,"target":34962,"byteStride":12},{"buffer":0,"byteOffset":20196,"byteLength":20196,"target":34962,"byteStride":12}],"buffers":[{"byteLength":40392,"uri":"data:application/octet-stream;base64,"}],"accessors":[{"bufferView":0,"componentType":5126,"count":1683,"max":[25.94190216064453,7.2412800788879395,24.93877601623535],"min":[-23.55809783935547,-2.358720064163208,-27.56122398376465],"type":"VEC3"},{"bufferView":1,"componentType":5126,"count":1683,"max":[0.9701424837112427,1,0.984427273273468],"min":[-0.8574929237365723,0.10547540336847305,-0.8574936985969543],"type":"VEC3"}],"materials":[{"pbrMetallicRoughness":{"baseColorFactor":[0.5019607843137255,0.5019607843137255,0.5019607843137255,1],"metallicFactor":0,"roughnessFactor":1}}],"meshes":[{"primitives":[{"mode":4,"attributes":{"POSITION":0,"NORMAL":1},"material":0}]}]}