{
    "asset" : {
        "generator" : "Khronos glTF Blender I/O v1.4.40",
        "version" : "2.0"
    },
    "scene" : 0,
    "scenes" : [
        {
            "name" : "Scene",
            "nodes" : [
                1
            ]
        }
    ],
    "nodes" : [
        {
            "mesh" : 0,
            "name" : "Icing"
        },
        {
            "children" : [
                0
            ],
            "mesh" : 1,
            "name" : "Donut",
            "translation" : [
                0,
                0.025557100772857666,
                0
            ]
        }
    ],
    "materials" : [
        {
            "doubleSided" : true,
            "name" : "Material.002",
            "pbrMetallicRoughness" : {
                "baseColorFactor" : [
                    0.026597224175930023,
                    0.010550292208790779,
                    0.002409332897514105,
                    1
                ],
                "metallicFactor" : 0,
                "roughnessFactor" : 0.2884615659713745
            }
        },
        {
            "doubleSided" : true,
            "name" : "Material.003",
            "pbrMetallicRoughness" : {
                "baseColorTexture" : {
                    "index" : 0,
                    "texCoord" : 0
                },
                "metallicFactor" : 0,
                "roughnessFactor" : 0.5
            }
        }
    ],
    "meshes" : [
        {
            "name" : "Torus.003",
            "primitives" : [
                {
                    "attributes" : {
                        "POSITION" : 0,
                        "NORMAL" : 1,
                        "TEXCOORD_0" : 2
                    },
                    "indices" : 3,
                    "material" : 0
                }
            ]
        },
        {
            "name" : "Torus.002",
            "primitives" : [
                {
                    "attributes" : {
                        "POSITION" : 4,
                        "NORMAL" : 5,
                        "TEXCOORD_0" : 6
                    },
                    "indices" : 7,
                    "material" : 1
                }
            ]
        }
    ],
    "textures" : [
        {
            "sampler" : 0,
            "source" : 0
        }
    ],
    "images" : [
        {
            "bufferView" : 8,
            "mimeType" : "image/png",
            "name" : "Donut_Texture_Body"
        }
    ],
    "accessors" : [
        {
            "bufferView" : 0,
            "componentType" : 5126,
            "count" : 34549,
            "max" : [
                0.07185275852680206,
                0.027056599035859108,
                0.0704982578754425
            ],
            "min" : [
                -0.07395951449871063,
                -0.012518910691142082,
                -0.07193458080291748
            ],
            "type" : "VEC3"
        },
        {
            "bufferView" : 1,
            "componentType" : 5126,
            "count" : 34549,
            "type" : "VEC3"
        },
        {
            "bufferView" : 2,
            "componentType" : 5126,
            "count" : 34549,
            "type" : "VEC2"
        },
        {
            "bufferView" : 3,
            "componentType" : 5123,
            "count" : 200064,
            "type" : "SCALAR"
        },
        {
            "bufferView" : 4,
            "componentType" : 5126,
            "count" : 22800,
            "max" : [
                0.06960687786340714,
                0.023989852517843246,
                0.06826768070459366
            ],
            "min" : [
                -0.07304560393095016,
                -0.02555718645453453,
                -0.07064364105463028
            ],
            "type" : "VEC3"
        },
        {
            "bufferView" : 5,
            "componentType" : 5126,
            "count" : 22800,
            "type" : "VEC3"
        },
        {
            "bufferView" : 6,
            "componentType" : 5126,
            "count" : 22800,
            "type" : "VEC2"
        },
        {
            "bufferView" : 7,
            "componentType" : 5123,
            "count" : 129024,
            "type" : "SCALAR"
        }
    ],
    "bufferViews" : [
        {
            "buffer" : 0,
            "byteLength" : 414588,
            "byteOffset" : 0
        },
        {
            "buffer" : 0,
            "byteLength" : 414588,
            "byteOffset" : 414588
        },
        {
            "buffer" : 0,
            "byteLength" : 276392,
            "byteOffset" : 829176
        },
        {
            "buffer" : 0,
            "byteLength" : 400128,
            "byteOffset" : 1105568
        },
        {
            "buffer" : 0,
            "byteLength" : 273600,
            "byteOffset" : 1505696
        },
        {
            "buffer" : 0,
            "byteLength" : 273600,
            "byteOffset" : 1779296
        },
        {
            "buffer" : 0,
            "byteLength" : 182400,
            "byteOffset" : 2052896
        },
        {
            "buffer" : 0,
            "byteLength" : 258048,
            "byteOffset" : 2235296
        },
        {
            "buffer" : 0,
            "byteLength" : 439889,
            "byteOffset" : 2493344
        }
    ],
    "samplers" : [
        {
            "magFilter" : 9729,
            "minFilter" : 9986
        }
    ],
    "buffers" : [
        {
            "byteLength" : 2933236,
            "uri" : "data:application/octet-stream;base64,"
        }
    ]
}
